<?xml version="1.0" encoding="utf-8"?>
<!-- Generator: Adobe Illustrator 16.0.0, SVG Export Plug-In . SVG Version: 6.00 Build 0)  -->
<!DOCTYPE svg PUBLIC "-//W3C//DTD SVG 1.1//EN" "http://www.w3.org/Graphics/SVG/1.1/DTD/svg11.dtd">
<svg version="1.1" xmlns="http://www.w3.org/2000/svg" xmlns:xlink="http://www.w3.org/1999/xlink" x="0px" y="0px" width="500px"
	 height="500px" viewBox="0 0 500 500" enable-background="new 0 0 500 500" xml:space="preserve">
<g id="BACKGROUND">
</g>
<g id="OBJECTS">
	<g>
		<g>
			<linearGradient id="SVGID_1_" gradientUnits="userSpaceOnUse" x1="113.813" y1="220.6582" x2="218.2852" y2="220.6582">
				<stop  offset="0" style="stop-color:#DC678E"/>
				<stop  offset="0.0085" style="stop-color:#D9658E"/>
				<stop  offset="0.1334" style="stop-color:#B04D92"/>
				<stop  offset="0.247" style="stop-color:#923C96"/>
				<stop  offset="0.3446" style="stop-color:#803297"/>
				<stop  offset="0.4146" style="stop-color:#7A2E98"/>
				<stop  offset="0.7523" style="stop-color:#9A5599"/>
				<stop  offset="1" style="stop-color:#AD6D99"/>
			</linearGradient>
			<path fill="url(#SVGID_1_)" d="M208.837,352.64c-3.1-0.567-6.091-1.766-8.819-3.504c-2.731-1.74-5.196-4.021-7.239-6.748
				c-2.044-2.729-3.663-5.902-4.703-9.427c0,0-65.186-220.83-65.206-220.9c-2.578-8.732,1.032-19.317,7.897-26.147
				c-2.424,1.834-6.654,5.516-8.954,7.535c-1.135,0.997-3.51,3.223-4.61,5.271c-3.659,5.914-4.252,13.293-2.284,19.891
				l63.908,217.107c1.019,3.462,2.61,6.579,4.62,9.26c2.009,2.678,4.435,4.917,7.124,6.624c2.686,1.706,5.633,2.881,8.688,3.437
				c3.049,0.554,6.205,0.491,9.316-0.276l9.709-2.394C215.131,353.146,211.931,353.207,208.837,352.64z"/>
			<g>
				<linearGradient id="SVGID_2_" gradientUnits="userSpaceOnUse" x1="121.8359" y1="209.5078" x2="318.0322" y2="209.5078">
					<stop  offset="0" style="stop-color:#E68A33"/>
					<stop  offset="0.5221" style="stop-color:#E166C8"/>
					<stop  offset="0.5816" style="stop-color:#D060C2"/>
					<stop  offset="0.6993" style="stop-color:#A44FB2"/>
					<stop  offset="0.8623" style="stop-color:#5E3498"/>
					<stop  offset="1" style="stop-color:#1E1C80"/>
				</linearGradient>
				<path fill="url(#SVGID_2_)" d="M223.552,66.366c13.105-2.454,25.543,7.804,29.247,19.876c0,0,63.771,207.954,63.787,208.01
					c4.23,13.851-0.94,27.601-13.938,31.681l-83.011,26.057c-3.248,1.02-6.57,1.258-9.796,0.812
					c-3.233-0.446-6.367-1.58-9.231-3.299c-2.868-1.723-5.461-4.031-7.608-6.822c-2.148-2.794-3.848-6.068-4.925-9.719
					c0,0-65.195-220.864-65.206-220.9c-3.73-12.635,2.825-27.369,16.535-29.936C139.405,82.125,223.546,66.367,223.552,66.366z"/>
			</g>
			<g>
				<linearGradient id="SVGID_3_" gradientUnits="userSpaceOnUse" x1="272.0254" y1="260.5537" x2="117.543" y2="120.1609">
					<stop  offset="0" style="stop-color:#E4D5FD"/>
					<stop  offset="0.3891" style="stop-color:#EFE7FE"/>
					<stop  offset="1" style="stop-color:#FFFFFF"/>
				</linearGradient>
				<path fill="url(#SVGID_3_)" d="M228.951,91.356c2.267-0.437,4.576-0.349,6.81,0.182c2.23,0.53,4.388,1.501,6.356,2.836
					c1.966,1.333,3.745,3.029,5.221,5.009c1.476,1.979,2.649,4.244,3.406,6.717l56.972,185.418c0.782,2.557,1.081,5.129,0.949,7.592
					c-0.132,2.467-0.694,4.825-1.633,6.95c-0.939,2.129-2.257,4.024-3.896,5.561c-1.644,1.539-3.612,2.718-5.85,3.407l-79.194,24.4
					c-2.409,0.742-4.871,0.905-7.26,0.563c-2.393-0.343-4.712-1.191-6.83-2.472c-2.121-1.282-4.038-2.995-5.625-5.063
					c-1.588-2.068-2.845-4.491-3.644-7.189c0,0-58.139-196.143-58.162-196.22c-2.759-9.323,2.069-20.309,12.196-22.258
					C148.767,106.79,228.164,91.508,228.951,91.356z"/>
			</g>
			<linearGradient id="SVGID_4_" gradientUnits="userSpaceOnUse" x1="174.5415" y1="92.5142" x2="169.8383" y2="88.24">
				<stop  offset="0" style="stop-color:#E4D5FD"/>
				<stop  offset="0.3891" style="stop-color:#EFE7FE"/>
				<stop  offset="1" style="stop-color:#FFFFFF"/>
			</linearGradient>
			<circle fill="url(#SVGID_4_)" cx="172.961" cy="91.078" r="3.883"/>
			
				<linearGradient id="SVGID_5_" gradientUnits="userSpaceOnUse" x1="217.1821" y1="-22.7817" x2="202.3051" y2="-36.3019" gradientTransform="matrix(0.9825 -0.1861 0.1861 0.9825 -7.1323 152.6064)">
				<stop  offset="0" style="stop-color:#E4D5FD"/>
				<stop  offset="0.3891" style="stop-color:#EFE7FE"/>
				<stop  offset="1" style="stop-color:#FFFFFF"/>
			</linearGradient>
			<path fill="url(#SVGID_5_)" d="M208.857,87.186l-24.004,4.546c-1.76,0.333-3.456-0.823-3.79-2.583l0,0
				c-0.333-1.76,0.823-3.456,2.583-3.79l24.004-4.545c1.759-0.333,3.456,0.823,3.79,2.583l0,0
				C211.773,85.156,210.617,86.853,208.857,87.186z"/>
		</g>
		<g>
			<path fill="#F3E6FC" d="M199.603,197.635l17.249,111.56c0,0,21.27,8.508,44.078,5.104c22.808-3.402,46.952-11.895,46.952-11.895
				L199.603,197.635z"/>
			<g>
				<g>
					<linearGradient id="SVGID_6_" gradientUnits="userSpaceOnUse" x1="269.8906" y1="117.9775" x2="345.874" y2="117.9775">
						<stop  offset="0" style="stop-color:#E26F3C"/>
						<stop  offset="1" style="stop-color:#EEB941"/>
					</linearGradient>
					<path fill="url(#SVGID_6_)" d="M341.754,154.785c-0.097,0-0.193-0.004-0.292-0.011c-2.152-0.159-3.77-2.033-3.611-4.187
						c0.027-0.37,2.541-37.148-12.097-53.768c-4.309-4.891-9.564-7.437-16.067-7.785c-7.265-0.387-13.15,1.674-18.032,6.302
						c-13.779,13.058-13.943,41.458-13.943,41.744c0,2.159-1.751,3.91-3.91,3.91c0,0,0,0-0.001,0c-2.159,0-3.909-1.751-3.909-3.911
						c0-1.303,0.192-32.073,16.384-47.418c6.434-6.098,14.439-8.934,23.828-8.436c8.596,0.459,15.839,3.971,21.529,10.436
						c16.806,19.097,14.14,57.862,14.018,59.503C345.496,153.22,343.782,154.785,341.754,154.785z"/>
				</g>
				<linearGradient id="SVGID_7_" gradientUnits="userSpaceOnUse" x1="212.4507" y1="124.1152" x2="364.7627" y2="124.1152">
					<stop  offset="0" style="stop-color:#E16484"/>
					<stop  offset="1" style="stop-color:#76294B"/>
				</linearGradient>
				<polygon fill="url(#SVGID_7_)" points="364.763,120.802 250.462,113.483 212.451,120.415 335.663,134.747 				"/>
				<linearGradient id="SVGID_8_" gradientUnits="userSpaceOnUse" x1="231.8608" y1="257.5293" x2="345.0706" y2="149.5333">
					<stop  offset="0" style="stop-color:#CA7819"/>
					<stop  offset="0.361" style="stop-color:#DA9330"/>
					<stop  offset="0.7524" style="stop-color:#E7AA44"/>
					<stop  offset="1" style="stop-color:#ECB24B"/>
				</linearGradient>
				<path fill="url(#SVGID_8_)" d="M212.451,120.415l-12.848,77.22l35.655,89.389c0,0,26.956,18.295,112.311,15.761l-11.905-173.575
					L212.451,120.415z"/>
				<linearGradient id="SVGID_9_" gradientUnits="userSpaceOnUse" x1="318.2314" y1="171.8418" x2="388.243" y2="245.5773">
					<stop  offset="0" style="stop-color:#E1612E"/>
					<stop  offset="1" style="stop-color:#BA4752"/>
				</linearGradient>
				<polygon fill="url(#SVGID_9_)" points="335.663,129.209 364.763,120.802 383.917,291.77 347.568,302.784 				"/>
				<g>
					<linearGradient id="SVGID_10_" gradientUnits="userSpaceOnUse" x1="227.2422" y1="147.3789" x2="243.7632" y2="147.3789">
						<stop  offset="0" style="stop-color:#E1612E"/>
						<stop  offset="1" style="stop-color:#BA4752"/>
					</linearGradient>
					<circle fill="url(#SVGID_10_)" cx="235.503" cy="147.379" r="8.26"/>
					<linearGradient id="SVGID_11_" gradientUnits="userSpaceOnUse" x1="305.4287" y1="155.6396" x2="321.9492" y2="155.6396">
						<stop  offset="0" style="stop-color:#E1612E"/>
						<stop  offset="1" style="stop-color:#BA4752"/>
					</linearGradient>
					<circle fill="url(#SVGID_11_)" cx="313.689" cy="155.64" r="8.26"/>
				</g>
				<g>
					<linearGradient id="SVGID_12_" gradientUnits="userSpaceOnUse" x1="231.3394" y1="120.8018" x2="317.7803" y2="120.8018">
						<stop  offset="0" style="stop-color:#F1CA47"/>
						<stop  offset="1" style="stop-color:#EEB941"/>
					</linearGradient>
					<path fill="url(#SVGID_12_)" d="M313.87,160.448c-2.152,0-3.901-1.742-3.91-3.896c-0.002-0.665-0.672-66.516-35.518-67.564
						c-0.259-0.008-0.52-0.012-0.774-0.012c-31.383,0-34.484,58.215-34.513,58.808c-0.101,2.157-1.965,3.825-4.089,3.722
						c-2.158-0.102-3.824-1.933-3.722-4.09c0.031-0.671,0.835-16.632,6.235-32.729c7.522-22.43,20.346-34.001,37.099-33.516
						c17.858,0.538,30.984,14.033,37.957,39.028c5.027,18.02,5.144,35.587,5.146,36.326c0.008,2.159-1.737,3.915-3.896,3.923
						C313.88,160.448,313.875,160.448,313.87,160.448z"/>
				</g>
			</g>
		</g>
	</g>
</g>
<g id="TEXTS">
	<g>
		
			<text transform="matrix(1 0 0 1 129.7227 413.584)" fill="#984583" font-family="'Ubuntu-Bold'" font-size="55.1863" letter-spacing="-2">Web</text>
		
			<text transform="matrix(1 0 0 1 238.3447 413.584)" fill="#E47B37" font-family="'Ubuntu-Bold'" font-size="55.1863" letter-spacing="-2">Store</text>
	</g>
</g>
</svg>
